<svg xmlns="http://www.w3.org/2000/svg" width="160" height="64" fill="none" viewBox="0 0 160 64">
    <g fill="#000" clip-path="url(#prefix__clip0)">
        <path d="M78.81 21.012H61.176c-4.088 0-5.9 2.6-6.319 5.081v-5.08h-9.785c-.533-.05-1.07.053-1.545.299-.476.246-.872.623-1.14 1.086l-2.684 3.99h39.1l.005-5.376zM30 42.012h7.02l8.8-14.448-6.277-.63L30 42.012zM85.622 21.017h-5.78v5.376h5.78v-5.376zM122.32 29.417l-18.086-1.093c0 2.814 1.818 4.7 4.915 4.957l12.883 1.008c.99.084 1.61.336 1.61 1.176 0 .8-.7 1.092-2.147 1.092h-17.55v5.46h17.921c5.657 0 8.134-2.017 8.134-6.595 0-4.116-2.23-5.669-7.68-6.005z"/>
        <path d="M103.998 28.324l-5.7-.336v6.175c0 1.932-.95 2.52-4.253 2.52h-4.54c-2.727 0-3.883-.8-3.883-2.52V27.4l-5.78-.42v7.686h-.124c-.33-2.226-1.156-4.83-6.648-5.208L54.983 28.24c0 2.814 1.981 4.494 5.078 4.83l12.595 1.3c.991.084 1.735.378 1.735 1.218 0 .924-.743 1.008-1.9 1.008H54.776v-8.4l-5.78-.378v14.2h23.538c5.244 0 6.937-2.772 7.186-5.082h.123c.662 3.654 3.8 5.082 9.126 5.082h5.865c6.235 0 9.167-1.932 9.167-6.469l-.003-7.225zM129.6 26.393v-5.38h-19.408c-4.04 0-5.863 2.544-6.183 5 0 .027-.007.055-.011.083v-5.084h-5.7v5.376h31.3l.002.005z"/>
    </g>
    <defs>
        <clipPath id="prefix__clip0">
            <path fill="#fff" d="M0 0H100V21.018H0z" transform="translate(30 21)"/>
        </clipPath>
    </defs>
</svg>
